<?xml version="1.0" encoding="iso-8859-1"?>
<!-- Generator: Adobe Illustrator 19.0.0, SVG Export Plug-In . SVG Version: 6.00 Build 0)  -->
<svg version="1.1" id="Capa_1" xmlns="http://www.w3.org/2000/svg" xmlns:xlink="http://www.w3.org/1999/xlink" x="0px" y="0px"
	 viewBox="0 0 512.001 512.001" style="enable-background:new 0 0 512.001 512.001;" xml:space="preserve">
<g>
	<g>
		<path d="M502.208,288.622c-9.966-19.932-22.635-34.379-34.465-44.303l7.145-9.825l-1.699-6.795
			c-12.485-49.94-44.84-73.638-69.783-84.724c-10.051-4.467-19.701-7.264-27.877-9.017l4.063-13.544l-6.334-6.334
			c-23.833-23.833-71.679-40.389-116.583-40.389c-0.449,0-0.9,0-1.35,0c-44.902,0-92.751,16.558-116.583,40.39l-6.334,6.334
			l4.063,13.544c-8.176,1.753-17.827,4.549-27.877,9.017C83.65,154.063,51.295,177.76,38.811,227.7l-1.699,6.795l7.145,9.825
			c-11.83,9.924-24.5,24.371-34.465,44.303c-12.233,24.468-13.041,54.828-2.217,83.3c11.386,29.949,34.49,53.756,63.387,65.314
			l2.682,1.073h28.926l-0.378-15.369c-0.353-14.303,2.745-49.029,17.766-74.535l13.634,18.746l74.786-32.051
			c1.428,1.245,2.909,2.441,4.443,3.584c12.574,9.356,27.505,14.301,43.179,14.301s30.605-4.945,43.179-14.301
			c1.535-1.143,3.016-2.339,4.443-3.584l74.786,32.051l13.711-18.852c18.362,30.91,17.701,74.119,17.69,74.641l-0.379,15.368h28.926
			l2.682-1.073c28.897-11.558,52.001-35.365,63.387-65.314C515.25,343.45,514.442,313.09,502.208,288.622z M72.994,405.041
			c-16.86-9.41-30.213-24.929-37.38-43.779c-7.737-20.349-7.36-42.49,1.008-59.226c7.858-15.716,17.19-26.372,25.299-33.429
			l39.241,53.956C81.105,348.952,74.886,383.873,72.994,405.041z M143.776,330.155L69.761,228.387
			c14.894-47.635,53.748-61.589,75.337-65.679l41.619,138.729c0.918,3.059,2.033,6.023,3.318,8.893L143.776,330.155z
			 M296.554,292.818c-5.414,18.047-21.712,30.173-40.553,30.173c-18.842,0-35.14-12.126-40.554-30.173l-48.947-163.156
			c20.22-15.177,56.333-25.975,88.85-25.975c0.197,0,0.395,0.001,0.591,0.002h0.121c0.199-0.001,0.392-0.002,0.591-0.002
			c32.516,0,68.631,10.798,88.85,25.975L296.554,292.818z M368.227,330.155l-46.259-19.825c1.285-2.87,2.4-5.834,3.318-8.893
			l41.59-138.634c6.836,1.319,15.402,3.607,24.348,7.584c25.404,11.29,42.542,30.783,51.019,57.997L368.227,330.155z
			 M476.387,361.262c-7.166,18.85-20.52,34.369-37.38,43.779c-1.892-21.168-8.111-56.089-28.168-82.479l39.241-53.956
			c8.111,7.056,17.443,17.714,25.299,33.429C483.746,318.773,484.123,340.913,476.387,361.262z"/>
	</g>
</g>
<g>
</g>
<g>
</g>
<g>
</g>
<g>
</g>
<g>
</g>
<g>
</g>
<g>
</g>
<g>
</g>
<g>
</g>
<g>
</g>
<g>
</g>
<g>
</g>
<g>
</g>
<g>
</g>
<g>
</g>
</svg>
