<?xml version="1.0" encoding="iso-8859-1"?>
<!-- Generator: Adobe Illustrator 19.0.0, SVG Export Plug-In . SVG Version: 6.00 Build 0)  -->
<svg version="1.1" id="Capa_1" xmlns="http://www.w3.org/2000/svg" xmlns:xlink="http://www.w3.org/1999/xlink" x="0px" y="0px"
	 viewBox="0 0 512.004 512.004" style="enable-background:new 0 0 512.004 512.004;" xml:space="preserve">
<path style="fill:#546E7A;" d="M353.906,149.494c-5.781-1.045-11.306,2.773-12.394,8.533l-1.515,8.362
	c-26.366-16.767-58.64-21.524-88.718-13.055c-43.858,11.412-78.415,45.18-90.766,88.782c-8.853,28.67-3.562,59.856,14.249,84.004
	c16.276,22.825,42.556,36.434,70.586,36.52c34.237-0.96,65.403-19.945,81.977-49.916c17.044,32.744,51.836,52.326,88.675,49.916
	c54.929-5.034,96.739-51.494,95.992-106.658c0-141.364-114.614-255.979-255.979-255.979S0.037,114.617,0.037,255.981
	s114.614,255.979,255.979,255.979c57.83,0.235,114.017-19.348,159.176-55.462c4.757-3.477,5.781-10.154,2.304-14.911
	c-3.477-4.757-10.154-5.781-14.911-2.304c-0.235,0.171-0.448,0.341-0.661,0.533c-41.426,33.107-92.899,51.025-145.908,50.812
	c-129.589,0-234.647-105.058-234.647-234.647S126.427,21.334,256.016,21.334s234.647,105.058,234.647,234.647
	c0.619,43.346-31.613,80.185-74.66,85.326c-34.45,0-74.66-16.767-74.831-62.096l21.332-117.324
	C363.548,156.085,359.687,150.539,353.906,149.494z M245.35,341.307c-21.204-0.128-41.042-10.452-53.329-27.731
	c-13.802-18.665-17.94-42.77-11.135-64.976c9.919-36.669,38.823-65.125,75.642-74.447c26.686-8.042,55.611-2.453,77.391,14.932
	c0.576,0.448,1.173,0.853,1.835,1.173l-15.188,84.174c0,0.213-0.213,0.363-0.256,0.576
	C313.035,311.421,282.382,338.534,245.35,341.307z"/>
<path d="M256.506,512.002c-9.834,0-19.753-0.555-29.672-1.707c-67.941-7.786-128.757-41.554-171.271-95.117
	C13.028,361.636-6.085,294.74,1.701,226.821S43.276,98.063,96.818,55.55c110.519-87.758,271.849-69.285,359.65,41.255
	c35.816,45.074,55.526,101.602,55.526,159.176c0.704,54.929-40.082,100.834-94.861,106.594c-0.064,0-0.128,0-0.171,0
	c-48.849,0-96.952-26.387-96.952-85.262l21.502-119.222c1.067-5.824,6.677-9.685,12.415-8.575c5.781,1.045,9.621,6.613,8.575,12.394
	l-21.332,117.324c0.171,45.308,40.402,62.075,74.831,62.075c42.642-4.565,75.215-41.213,74.66-85.198
	c0-52.902-18.089-104.738-50.897-146.057c-38.973-49.084-94.733-80.036-157-87.182c-62.203-7.125-123.616,10.41-172.679,49.383
	c-49.084,38.973-80.036,94.733-87.182,157c-7.146,62.267,10.388,123.574,49.361,172.679c38.973,49.084,94.733,80.036,157,87.182
	c62.309,7.103,123.574-10.388,172.679-49.361c4.608-3.648,11.306-2.922,14.975,1.728c3.669,4.608,2.901,11.306-1.728,14.975
	C369.478,492.761,314.038,512.002,256.506,512.002z"/>
<path d="M245.99,362.617c-51.942-1.941-91.768-44.903-89.827-95.8c0.32-8.405,1.771-16.745,4.373-24.766
	c14.356-45.436,47.441-77.775,90.744-88.675c37.01-9.343,75.279-1.365,97.485,20.308c4.224,4.096,4.309,10.858,0.213,15.081
	c-4.138,4.245-10.9,4.309-15.081,0.192c-16.788-16.34-47.868-22.313-77.412-14.889c-21.14,5.312-59.088,22.057-75.62,74.447
	c-2.005,6.229-3.114,12.628-3.37,19.113c-1.515,39.122,29.118,72.186,68.261,73.679c36.221-2.24,67.258-29.416,74.447-66.043
	c1.109-5.781,6.677-9.557,12.522-8.426c5.781,1.131,9.535,6.741,8.405,12.522C332.084,325.543,292.962,359.759,245.99,362.617z"/>
<g>
</g>
<g>
</g>
<g>
</g>
<g>
</g>
<g>
</g>
<g>
</g>
<g>
</g>
<g>
</g>
<g>
</g>
<g>
</g>
<g>
</g>
<g>
</g>
<g>
</g>
<g>
</g>
<g>
</g>
</svg>
